<!DOCTYPE svg PUBLIC "-//W3C//DTD SVG 20010904//EN" "http://www.w3.org/TR/2001/REC-SVG-20010904/DTD/svg10.dtd">
<svg xmlns="http://www.w3.org/2000/svg" version="1.0" width="724.000000pt" height="880.000000pt" viewBox="0 0 724.000000 880.000000" preserveAspectRatio="xMidYMid meet">
<metadata>
Created by potrace 1.16, written by Peter Selinger 2001-2019
</metadata>
<g transform="translate(0.000000,880.000000) scale(0.100000,-0.100000)" fill="#000000" stroke="none">
<path d="M1780 8541 c-332 -73 -586 -315 -682 -648 -19 -66 -23 -101 -22 -233 0 -139 3 -164 27 -243 84 -272 270 -481 522 -584 120 -48 211 -66 345 -66 342 0 647 190 800 498 66 134 93 245 93 395 0 134 -18 225 -66 345 -103 252 -314 441 -584 521 -120 36 -309 42 -433 15z"/>
<path d="M5264 8412 c-37 -64 -122 -211 -189 -327 -67 -115 -218 -376 -335 -580 -117 -203 -260 -450 -317 -548 -57 -98 -103 -180 -103 -183 0 -2 457 -4 1015 -4 558 0 1015 2 1015 5 0 3 -9 18 -19 33 -10 15 -68 113 -129 217 -295 512 -512 888 -674 1168 -98 170 -178 312 -178 317 0 35 -27 4 -86 -98z"/>
<path d="M1595 5878 c-203 -281 -370 -518 -369 -527 0 -16 729 -1024 744 -1029 4 -2 10 3 13 11 3 7 170 240 371 516 l366 503 -19 27 c-55 77 -704 969 -719 988 -17 21 -22 15 -387 -489z"/>
<path d="M4272 5230 l3 -570 1058 -3 1057 -2 0 573 0 572 -1060 0 -1060 0 2 -570z"/>
<path d="M1230 3110 l0 -740 735 2 735 3 0 735 0 735 -735 3 -735 2 0 -740z"/>
<path d="M5065 3815 c-406 -56 -713 -218 -821 -433 -24 -49 -28 -69 -29 -142 0 -74 4 -93 28 -143 172 -350 861 -540 1491 -412 427 86 718 306 719 543 1 79 -14 128 -59 199 -123 194 -421 338 -797 388 -139 18 -402 18 -532 0z"/>
<path d="M5321 2029 c-146 -379 -243 -604 -258 -606 -10 -1 -162 -12 -338 -24 -176 -11 -321 -22 -322 -23 -2 -1 476 -400 505 -422 14 -10 6 -50 -63 -320 -43 -170 -82 -320 -87 -332 -4 -13 -5 -22 0 -20 4 1 135 83 290 181 154 97 283 177 285 177 8 0 531 -331 550 -348 9 -8 19 -13 22 -10 4 4 -84 362 -144 591 l-18 68 240 200 c132 110 250 207 261 214 11 8 18 17 15 19 -2 2 -152 14 -334 26 -181 13 -333 25 -337 29 -3 3 -61 143 -128 311 -67 168 -124 307 -126 309 -2 2 -8 -7 -13 -20z"/>
<path d="M1450 1909 c-149 -29 -277 -161 -311 -321 -14 -63 -6 -198 16 -283 25 -94 108 -250 194 -366 121 -161 602 -695 620 -687 13 6 312 327 431 462 276 317 372 486 399 705 17 132 -10 247 -77 336 -81 107 -188 160 -322 159 -194 -1 -352 -122 -414 -316 -8 -25 -33 -22 -41 5 -17 55 -62 133 -106 181 -58 64 -127 102 -216 121 -76 16 -107 17 -173 4z"/>
<path d="M731 43 c-13 -3 -37 -13 -55 -24 l-31 -19 108 0 c59 0 107 2 107 4 0 2 -10 10 -23 19 -27 17 -73 26 -106 20z"/>
<path d="M515 10 c-14 -6 0 -9 45 -9 45 0 59 3 45 9 -11 5 -31 9 -45 9 -14 0 -34 -4 -45 -9z"/>
</g>
</svg>
